Sources:
ZOMBIES thnxs

Notes:
ENJOY. CROPPED AND FIXED BAD AR...

Greetz:
Xtreme Encode|FYA|ILLUMANTI|CM8|RX|VISION|HDSCENE|NIGHTMAREZ|xTriLL|DTRG|CRYS|REMIXHD|BIDA|RX|REFILL|INSPiRAL|SIC|ZOMBIESZ|HOPE|Anonymous
To all the people who have helped me :P you know who you are

Anything to offer email us @: 26k@hushmail.me

Video
ID                                       : 0
Format                                   : MPEG-4 Visual
Format profile                           : Advanced Simple@L5
Format settings, BVOP                    : 2
Format settings, QPel                    : No
Format settings, GMC                     : No warppoints
Format settings, Matrix                  : Default (H.263)
Codec ID                                 : XVID
Codec ID/Hint                            : XviD
Duration                                 : 1h 34mn
Bit rate                                 : 1 600 Kbps
Width                                    : 720 pixels
Height                                   : 320 pixels
Display aspect ratio                     : 2.25:1
Frame rate                               : 23.976 fps
Color space                              : YUV
Chroma subsampling                       : 4:2:0
Bit depth                                : 8 bits
Scan type                                : Progressive
Compression mode                         : Lossy
Bits/(Pixel*Frame)                       : 0.290
Stream size                              : 1.05 GiB (92%)
Writing library                          : XviD 63

Audio
ID                                       : 1
Format                                   : AC-3
Format/Info                              : Audio Coding 3
Mode extension                           : CM (complete main)
Codec ID                                 : 2000
Duration                                 : 1h 34mn
Bit rate mode                            : Constant
Bit rate                                 : 128 Kbps
Channel(s)                               : 2 channels
Channel positions                        : Front: L R
Sampling rate                            : 44.1 KHz
Bit depth                                : 16 bits
Compression mode                         : Lossy
Stream size                              : 86.1 MiB (7%)
Alignment                                : Aligned on interleaves
Interleave, duration                     : 35 ms (0.84 video frame)

[/code]
Screens:
[img]http://img214.imageshack.us/img214/8158/vlcsnap2012012318h36m01.png[/img]
[img]http://img515.imageshack.us/img515/1425/vlcsnap2012012318h36m05.png[/img]
[img]http://img440.imageshack.us/img440/8754/vlcsnap2012012318h36m17.png[/img]
[img]http://img16.imageshack.us/img16/2230/vlcsnap2012012318h36m23.png[/img]
[img]http://img269.imageshack.us/img269/5157/vlcsnap2012012318h36m28.png[/img]
[img]http://img252.imageshack.us/img252/6796/vlcsnap2012012318h36m36.png[/img]

[img]http://img851.imageshack.us/img851/5503/26ks.jpg[/img]
Thank you smallz for banner!